<?xml version="1.0" encoding="UTF-8"?>
<svg id="Layer_2" data-name="Layer 2" xmlns="http://www.w3.org/2000/svg" viewBox="0 0 1432.11 263.35">
  <g id="dougnewby" data-name="dougnewby">
    <g >
      <path d="m76.29,156.02l-28.56-8.57c-15.71-4.9-21.01-8.16-21.01-15.1,0-13.06,14.28-16.93,25.7-16.93,19.58,0,38.76,12.65,45.08,31.21l1.63-.41-8.16-40.59c-2.04,2.45-3.88,3.67-7.34,3.67-12.04,0-19.79-5.1-35.49-5.1-18.56,0-41.82,10.2-41.82,34.07,0,18.77,13.67,26.11,29.58,31.01l27.13,8.36c13.87,4.28,29.99,8.98,29.99,26.72s-12.44,28.15-38.76,28.15S9.18,213.75,1.84,189.88l-1.84.61,11.83,51c1.84-2.04,3.88-3.67,6.94-3.67,9.59,0,22.64,6.53,39.37,6.53,33.46,0,55.28-16.12,55.28-48.35,0-16.73-10.61-32.03-37.13-39.98Z"/>
      <path d="m1372.29,155.02l-28.56-8.57c-15.71-4.9-21.01-8.16-21.01-15.1,0-13.06,14.28-16.93,25.7-16.93,19.58,0,38.76,12.65,45.08,31.21l1.63-.41-8.16-40.59c-2.04,2.45-3.88,3.67-7.34,3.67-12.04,0-19.79-5.1-35.5-5.1-18.56,0-41.82,10.2-41.82,34.07,0,18.77,13.67,26.11,29.58,31.01l27.13,8.36c13.87,4.28,29.99,8.98,29.99,26.72s-12.44,28.15-38.76,28.15-45.08-18.77-52.43-42.63l-1.84.61,11.83,51c1.84-2.04,3.88-3.67,6.94-3.67,9.59,0,22.64,6.53,39.37,6.53,33.46,0,55.28-16.12,55.28-48.35,0-16.73-10.61-32.03-37.13-39.98Z"/>
      <path d="m1417.55,108.96c-8.75,0-14.7,7.14-14.7,14.63s6.02,14.63,14.7,14.63c8.19,0,14.56-6.72,14.56-14.63s-6.44-14.63-14.56-14.63Zm0,26.95c-7.28,0-12.39-5.95-12.39-12.32s5.11-12.32,12.39-12.32c6.86,0,12.25,5.6,12.25,12.32s-5.32,12.32-12.25,12.32Z"/>
      <path d="m1424.76,129.26c-1.19-2.59-2.59-5.04-4.2-6.86,1.33-.77,3.08-1.89,3.08-3.92,0-2.73-2.73-2.73-3.92-2.73h-9.59v.84c1.4.28,1.61.35,1.61,2.94v8.12c0,2.59-.21,2.66-1.61,2.94v.84h6.58v-.84c-1.47-.21-1.68-.42-1.68-2.94v-3.15c1.12-.28,1.61-.49,2.59-.84,3.08,3.78,3.71,5.74,3.71,6.37,0,.35-.56.49-.91.56v.84h5.81v-.77c-.84-.21-1.12-.42-1.47-1.4Zm-9.73-6.58v-3.71c0-1.12,0-1.54,2.38-1.54,1.26,0,2.8.14,2.8,1.47,0,1.82-3.29,3.08-5.18,3.78Z"/>
      <path d="m177.39,218.26c-4.73-3.99-9.98-4.9-15.96-4.9h-13.57v.51c3.65.51,3.71,3.82,3.71,6.95v22.97c0,3.08-.06,5.99-3.71,6.56v.51h15.68c5.59,0,10.38-.11,14.88-3.88,3.99-3.31,6.04-8.55,6.04-13.62,0-5.76-2.68-11.4-7.07-15.11Zm-13.68,29.99c-4.73,0-5.87-.68-5.87-7.35v-18.93c0-5.42.51-5.99,4.28-5.99,9.92,0,15.51,8.32,15.51,17.79,0,8.89-4.9,14.48-13.91,14.48Z"/>
      <path d="m217.29,222.19c-8.89,0-15.85,5.64-15.85,14.82s6.61,14.42,15.28,14.42,15.9-5.7,15.9-14.99-6.61-14.25-15.33-14.25Zm-.06,26.51c-6.78,0-9.29-7.07-9.29-12.83s2.56-10.95,9.01-10.95,9.18,6.67,9.18,12.31-3.25,11.46-8.89,11.46Z"/>
      <path d="m277.48,243.97v-21.21l-9.23.74v.51c3.36.17,3.42,3.36,3.42,6.5v4.16c0,3.02-.06,5.99-1.82,8.61-1.54,2.28-4.45,4.16-7.24,4.16-3.48,0-4.16-2.51-4.16-7.52v-17.16l-9.24.74v.51c3.36.23,3.42,3.48,3.42,6.5v12.43c0,4.73,1.48,8.49,6.84,8.49,4.67,0,8.89-3.36,12.2-6.38.11,2,.4,3.99,1.14,5.81h8.21v-.51c-3.48,0-3.53-3.65-3.53-6.38Z"/>
      <path d="m324.96,249.04c-1.54-1.48-1.6-2.22-1.6-4.28v-14.99c0-5.59.63-6.33,3.42-6.5v-.51h-15.73c-8.44,0-13.68,4.39-13.68,13.11,0,4.79,1.94,9.41,5.93,12.2,3.71,2.62,7.75,2.79,12.14,2.79,2.91,0,5.99.17,5.99,3.93,0,3.53-3.88,5.99-9.23,5.99s-9.06-2.62-9.06-6.38c0-1.08.28-1.65.8-2.51l-.29-.34-6.38,6.44c3.88,3.93,9.52,5.36,14.88,5.36,7.81,0,15.33-3.36,15.33-9.46,0-2.22-1.03-3.42-2.51-4.85Zm-7.41-1.08c-.85.06-1.77.17-3.14.17-5.36,0-10.89-4.45-10.89-12.14,0-5.87,3.08-10.95,9.46-10.95,3.93,0,4.56,1.2,4.56,4.62v18.3Z"/>
      <path d="m352.55,243.86v-31.98l-9.23,1.48v.51c3.36.17,3.42,3.36,3.42,6.5v23.49c0,2.91-.06,6.1-3.42,6.5v.51h12.66v-.51c-3.36-.17-3.42-3.42-3.42-6.5Z"/>
      <path d="m398.83,242.49v-10.72c0-7.13-2.39-9.58-9.63-9.58-3.88,0-6.27.63-9.86,1.88-.85.29-1.43.46-1.94.46-.63,0-1.08-.29-1.71-.74l-.91,9.35c2.28-5.07,6.73-7.75,12.14-7.75,4.22,0,5.76,1.48,5.76,5.7v1.08c-12.26,2.57-19.9,5.53-19.9,12.6,0,4.22,3.82,6.67,9.01,6.67,4.39,0,9.12-1.65,11.34-5.7.06,1.88.8,3.65,1.94,5.13h7.81v-.51c-3.99-.8-4.05-4.45-4.05-7.87Zm-6.16-5.64c0,4.67-1.48,11.4-8.78,11.4-2.45,0-4.62-1.54-4.62-4.22,0-5.87,8.89-8.55,13.4-9.52v2.34Z"/>
      <path d="m423.85,228.52c0-2.85,3.31-3.59,5.53-3.59,4.22,0,9.06,2.51,9.86,7.01l.4-.06-.4-8.84c-.46.34-.8.46-1.37.46-1.25,0-4.67-1.31-9.18-1.31s-10.66,1.94-10.66,7.53c0,10.2,18.07,7.24,18.07,13.68,0,3.59-4.22,5.3-7.41,5.3-5.7,0-10.55-3.71-11.23-9.46l-.46.11.46,11.17c.4-.46.74-.8,1.43-.8,1.14,0,5.7,1.71,10.72,1.71,5.7,0,12.31-3.14,12.31-9.69,0-9.92-18.07-7.3-18.07-13.23Z"/>
      <path d="m513.8,213.87c3.76.4,3.82,3.71,3.82,6.95v6.78l-13-10.83c-1.14-.91-1.77-1.71-1.77-2.22,0-.4.4-.63,1.2-.68v-.51h-14.99v.51c3.65.51,3.71,3.82,3.71,6.95v22.97c0,3.08-.06,6.04-3.71,6.56v.51h11.12v-.51c-3.65-.34-3.71-3.71-3.71-6.96v-25.48l18.01,14.99c2.96,2.51,3.14,3.02,3.14,5.7v5.19c0,3.19-.11,6.16-3.82,6.56v.51h11.23v-.51c-3.65-.51-3.71-3.76-3.71-6.96v-22.97c0-3.08.06-6.04,3.71-6.56v-.51h-11.23v.51Z"/>
      <path d="m567.04,245.91c-1.71,1.48-4.62,2.79-6.9,2.79-5.99,0-10.95-4.79-11.86-10.66l21.78-6.04c-1.6-6.1-7.13-9.81-13.28-9.81-8.38,0-14.99,6.16-14.99,14.65,0,10.95,11.23,14.65,16.02,14.65,1.88,0,3.19-.11,4.39-.29s2.28-.4,3.53-.4c1.03,0,1.54.06,1.88.4l2.96-9.41-.51-.23c-.8,1.6-1.65,3.13-3.02,4.33Zm-10.77-20.98c3.65,0,6.04,3.14,7.13,6.33l-15.45,4.39c0-5.19,2.51-10.72,8.32-10.72Z"/>
      <path d="m619.71,223.28c1.48.11,2,.8,2,1.94,0,.97-.4,2.22-.8,3.65l-5.02,16.76-8.1-22.4h-.46l-7.64,23.32-4.67-18.07c-.28-1.08-.46-2.17-.46-3.02,0-1.2.46-2.05,1.88-2.17v-.51h-11.23v.51c2.51,0,3.08,3.02,3.65,4.9l5.53,18.53c.29.97.51,1.82.51,2.39,0,.68-.29,1.08-1.08,1.25v.51h8.44v-.51c-.74-.11-.97-.46-.97-.97,0-.68.29-1.2.46-1.71l4.5-12.94,4.56,12.6c.34.91.51,1.6.51,2.11,0,.57-.23.85-.91.91v.51h8.67v-.51c-.91-.06-1.2-.46-1.2-1.14,0-.63.29-1.48.57-2.45l5.76-17.84c.74-2.22,1.37-5.59,4.28-5.64v-.51h-8.78v.51Z"/>
      <path d="m658.12,222.19c-.63,0-1.48,0-5.19.23v-10.55l-9.24,1.48v.51c3.14,0,3.42,2.45,3.42,6.5v23.49c0,2.85-.06,6.04-3.42,6.5v.51h14.77c11.12,0,16.42-4.79,16.42-13.23,0-8.95-6.9-15.45-16.76-15.45Zm-.17,25.94c-4.56,0-5.02-1.25-5.02-4.28v-18.7c1.08-.11,2.22-.23,3.31-.23,7.07,0,12.48,5.19,12.48,12.31,0,6.61-4.05,10.89-10.77,10.89Z"/>
      <path d="m710.68,223.28c1.48.17,2,.8,2,1.77,0,1.14-.74,2.74-1.37,4.45l-5.36,14.25-5.87-15.73c-.34-.97-.8-2.05-.8-2.96s.46-1.6,1.88-1.77v-.51h-11.46v.51c2,.06,2.96,2.34,3.93,4.79l6.1,15.22c1.03,2.51,2.39,5.93,2.39,8.67,0,3.08-1.71,7.13-5.36,7.13-2.17,0-3.31-1.88-3.31-3.93,0-.51.06-1.03.23-1.54l-.46-.29-3.53,7.7c1.54,1.25,3.65,2.05,5.59,2.05,6.1,0,8.27-4.39,10.15-9.29l9.69-25.37c1.37-3.53,2.39-4.9,4.28-5.13v-.51h-8.72v.51Z"/>
      <path d="m808.89,223.16c0-2.85-1.82-5.02-4.73-5.02-2.11,0-3.93,1.54-4.9,3.31.74-.51,1.6-1.03,2.68-1.03,1.31,0,2.22.91,2.22,2.22,0,2.45-2.85,3.42-4.9,3.42-3.65,0-7.13-1.6-10.2-3.53.34-.74.51-1.54.51-2.34,0-5.07-4.56-7.58-9.12-7.58s-10.03,2.57-10.03,7.92c0,3.19,1.77,5.59,4.45,7.18-5.64,1.14-10.03,5.59-10.03,11.51,0,7.75,7.47,12.37,14.59,12.37,6.04,0,11.91-2.74,15.05-8.04,1.6,1.65,2.51,3.25,2.51,4.5,0,1.14-.74,1.94-2.51,2.28v.51h13.11v-.51c-1.82-.29-2.51-1.25-3.36-2.74-2-3.54-4.45-6.78-7.47-9.46.23-.8.34-1.82.34-2.91,0-1.88-.4-4.1-1.42-6.27,1.65.86,3.08,1.37,4.96,1.37,4.22,0,8.27-2.74,8.27-7.18Zm-28.5-8.04c2.91,0,4.9,1.82,4.9,4.73,0,2.68-2.05,4.73-4.33,5.76-2.22-1.25-5.19-3.76-5.19-6.56,0-2.51,2.28-3.93,4.62-3.93Zm.57,33.23c-5.93,0-9.86-4.33-9.86-10.15,0-4.45,1.94-6.96,5.47-9.24l15.62,12.43c-2.17,4.05-6.61,6.95-11.23,6.95Zm13.11-12.66l-11.57-8.95c2.74-.51,4.85-1.48,6.33-3.82,3.48,2.34,5.3,6.56,5.3,11.06,0,.57,0,1.14-.06,1.71Z"/>
      <path d="m889.88,246.19l-9.75-28.05c-.23-.63-.51-1.54-.51-2.22,0-1.14.63-1.77,1.65-2.05v-.51h-12.66v.51c.97.17,1.77.8,1.77,1.82,0,1.14-.46,2.22-.86,3.31l-9.18,24.23c-.63,1.65-1.54,3.82-2.57,5.3-.86,1.2-1.6,1.54-2.96,1.82v.51h11.63v-.51c-1.65-.11-3.14-1.25-3.14-3.08,0-1.37.46-2.74.91-4.05l3.42-9.41c10.83.17,15.56,8.21,15.56,12.54,0,2-.74,3.54-2.79,3.99v.51h12.94v-.51c-2.28-.57-2.74-2.05-3.48-4.16Zm-21.49-14.88l5.19-13.68,6.33,17.96c-2.74-2.62-7.3-4.28-11.52-4.28Z"/>
      <path d="m914.05,228.52c0-2.85,3.31-3.59,5.53-3.59,4.22,0,9.06,2.51,9.86,7.01l.4-.06-.4-8.84c-.46.34-.8.46-1.37.46-1.25,0-4.67-1.31-9.18-1.31s-10.66,1.94-10.66,7.53c0,10.2,18.07,7.24,18.07,13.68,0,3.59-4.22,5.3-7.41,5.3-5.7,0-10.55-3.71-11.23-9.46l-.46.11.46,11.17c.4-.46.74-.8,1.43-.8,1.14,0,5.7,1.71,10.72,1.71,5.7,0,12.31-3.14,12.31-9.69,0-9.92-18.07-7.3-18.07-13.23Z"/>
      <path d="m955.09,228.52c0-2.85,3.31-3.59,5.53-3.59,4.22,0,9.06,2.51,9.86,7.01l.4-.06-.4-8.84c-.46.34-.8.46-1.37.46-1.25,0-4.67-1.31-9.18-1.31s-10.66,1.94-10.66,7.53c0,10.2,18.07,7.24,18.07,13.68,0,3.59-4.22,5.3-7.41,5.3-5.7,0-10.55-3.71-11.23-9.46l-.46.11.46,11.17c.4-.46.74-.8,1.43-.8,1.14,0,5.7,1.71,10.72,1.71,5.7,0,12.31-3.14,12.31-9.69,0-9.92-18.07-7.3-18.07-13.23Z"/>
      <path d="m1005.42,222.19c-8.89,0-15.85,5.64-15.85,14.82s6.61,14.42,15.28,14.42,15.9-5.7,15.9-14.99-6.61-14.25-15.33-14.25Zm-.06,26.51c-6.78,0-9.29-7.07-9.29-12.83s2.57-10.95,9.01-10.95,9.18,6.67,9.18,12.31-3.25,11.46-8.89,11.46Z"/>
      <path d="m1055.07,248.7c-3.08,0-6.27-1.82-8.27-4.16-2-2.34-2.91-5.24-2.91-8.27,0-5.59,3.19-11.34,9.24-11.34,4.28,0,7.47,2.45,9.35,6.21l.34-.17-1.65-8.78c-.8.51-1.42.63-2.39.63s-2.28-.23-3.65-.34c-1.31-.11-2.74-.29-4.05-.29-7.87,0-13.34,5.82-13.34,13.68,0,9.81,7.92,15.56,17.1,15.56.91,0,2.22-.11,3.42-.23,1.25-.11,2.39-.23,3.02-.23.51,0,.91.11,1.2.29l2.91-8.21-.4-.23c-1.88,3.65-5.99,5.87-9.92,5.87Z"/>
      <path d="m1090.52,214.84c0-2.11-1.65-4.05-3.82-4.05-2.45,0-3.88,1.88-3.88,4.22s1.65,4.1,3.93,4.1,3.76-2.17,3.76-4.28Z"/>
      <path d="m1089.61,243.86v-21.09l-9.23.74v.51c3.36.34,3.42,3.54,3.42,6.5v13.34c0,2.96-.06,6.21-3.42,6.5v.51h12.66v-.51c-3.36-.17-3.42-3.42-3.42-6.5Z"/>
      <path d="m1135.27,242.49v-10.72c0-7.13-2.39-9.58-9.63-9.58-3.88,0-6.27.63-9.86,1.88-.86.29-1.42.46-1.94.46-.63,0-1.08-.29-1.71-.74l-.91,9.35c2.28-5.07,6.73-7.75,12.14-7.75,4.22,0,5.76,1.48,5.76,5.7v1.08c-12.26,2.57-19.9,5.53-19.9,12.6,0,4.22,3.82,6.67,9.01,6.67,4.39,0,9.12-1.65,11.34-5.7.06,1.88.8,3.65,1.94,5.13h7.81v-.51c-3.99-.8-4.05-4.45-4.05-7.87Zm-6.16-5.64c0,4.67-1.48,11.4-8.78,11.4-2.45,0-4.62-1.54-4.62-4.22,0-5.87,8.89-8.55,13.4-9.52v2.34Z"/>
      <path d="m1165.36,248.13c-3.42,0-4.05-2.05-4.05-5.76v-16.65h4.16c.74,0,1.88,0,2.45.63l1.6-4.05c-.8.68-1.54.97-3.65.97h-4.56v-10.38l-5.13,2.28c.17.97.34,1.94.34,2.91,0,3.31-1.65,6.33-4.79,7.13v.51h3.76v17.39c0,4.67,1.08,8.32,6.56,8.32,2.34,0,4.85-.34,7.13-1.08l1.94-4.67-.34-.17c-1.42,1.71-3.19,2.62-5.42,2.62Z"/>
      <path d="m1211.13,245.91c-1.71,1.48-4.62,2.79-6.9,2.79-5.99,0-10.95-4.79-11.86-10.66l21.78-6.04c-1.6-6.1-7.12-9.81-13.28-9.81-8.38,0-14.99,6.16-14.99,14.65,0,10.95,11.23,14.65,16.02,14.65,1.88,0,3.19-.11,4.39-.29,1.2-.17,2.28-.4,3.53-.4,1.03,0,1.54.06,1.88.4l2.96-9.41-.51-.23c-.8,1.6-1.65,3.13-3.02,4.33Zm-10.77-20.98c3.65,0,6.04,3.14,7.12,6.33l-15.45,4.39c0-5.19,2.51-10.72,8.32-10.72Z"/>
      <path d="m1237.81,228.52c0-2.85,3.31-3.59,5.53-3.59,4.22,0,9.06,2.51,9.86,7.01l.4-.06-.4-8.84c-.46.34-.8.46-1.37.46-1.25,0-4.67-1.31-9.18-1.31s-10.66,1.94-10.66,7.53c0,10.2,18.07,7.24,18.07,13.68,0,3.59-4.22,5.3-7.41,5.3-5.7,0-10.55-3.71-11.23-9.46l-.46.11.46,11.17c.4-.46.74-.8,1.42-.8,1.14,0,5.7,1.71,10.72,1.71,5.7,0,12.31-3.14,12.31-9.69,0-9.92-18.07-7.3-18.07-13.23Z"/>
      <path d="m129.56,80.52c-3.48-.24-6.6-2.64-6.6-6.48,0-2.88.96-5.76,1.92-8.52l7.2-19.8c22.8.36,32.76,17.28,32.76,26.4,0,4.2-1.56,7.44-5.88,8.4v1.08h27.24v-1.08c-4.8-1.2-5.76-4.32-7.32-8.76l-20.52-59.04c-.48-1.32-1.08-3.24-1.08-4.68,0-2.4,1.32-3.72,3.48-4.32v-1.08h-26.64v1.08c2.04.36,3.72,1.68,3.72,3.84,0,2.4-.96,4.68-1.8,6.96l-19.32,51c-1.32,3.48-3.24,8.04-5.4,11.16-1.8,2.52-3.36,3.24-6.24,3.84v1.08h24.48v-1.08Zm15-68.88l13.32,37.8c-5.76-5.52-15.36-9-24.24-9l10.92-28.8Z"/>
      <path d="m225.68,80.52c-7.68-1.08-7.8-7.08-7.8-14.64v-21.48l14.64-4.8c7.92,9.72,18.84,26.4,18.84,36.24,0,3-1.8,4.2-4.44,4.68v1.08h25.8v-1.08c-3.84-.84-5.4-2.52-8.4-10.08-5.04-12.72-11.76-25.44-21-35.76,7.68-4.08,17.28-9.96,17.28-19.8,0-8.16-4.32-12.24-17.28-12.24h-46.44v1.08c7.68,1.08,7.8,8.04,7.8,14.64v48.24c0,6.6-.12,12.72-7.8,13.92v1.08h28.8v-1.08Zm-7.8-62.28c0-2.16.24-5.88,1.44-7.44,2.16-2.64,10.32-2.64,13.8-2.64,7.08,0,14.4.84,14.4,9.48,0,11.16-21.12,18.72-29.64,21.12v-20.52Z"/>
      <path d="m332,76.92c-21.96,0-36.12-18.72-36.12-39.6,0-7.92,2.52-15.96,7.68-21.96,5.4-6.24,11.76-8.04,19.68-8.04,10.92,0,21.84,5.28,26.28,15.72l.96-.36-5.52-22.68c-.84,1.8-2.76,2.4-4.68,2.4-2.04,0-4.56-.36-7.44-.72-2.88-.24-6.12-.6-9.6-.6-10.8,0-21.24,2.16-29.88,9.24-8.16,6.84-11.88,17.4-11.88,27.84,0,13.2,5.16,25.68,15.48,34.2,9.84,8.16,22.44,10.8,35.04,10.8,7.8,0,12-.84,16.2-.84.84,0,1.56.12,2.28.48l9.24-24.12-1.2-.48c-5.16,11.16-13.8,18.72-26.52,18.72Z"/>
      <path d="m401.48,80.52c-7.68-.72-7.8-7.8-7.8-14.64V30.36h35.76v36.36c0,6.84-.12,13.2-7.8,13.8v1.08h28.8v-1.08c-7.68-.96-7.8-7.92-7.8-14.64V17.52c0-6.6.12-12.84,7.8-13.8v-1.08h-28.8v1.08c7.8.6,7.68,7.68,7.8,14.64v6.24h-35.76v-7.08c0-6.72.12-12.96,7.8-13.8v-1.08h-28.8v1.08c7.68,1.08,7.8,8.04,7.8,14.64v48.36c0,6.48-.12,12.72-7.8,13.8v1.08h28.8v-1.08Z"/>
      <path d="m495.8,80.52c-7.68-1.08-7.8-8.04-7.8-14.64V17.64c0-6.6.12-12.72,7.8-13.92v-1.08h-28.8v1.08c7.68,1.08,7.8,8.04,7.8,14.64v48.36c0,6.6-.12,12.84-7.8,13.8v1.08h28.8v-1.08Z"/>
      <path d="m536.12,8.88v57.84c0,7.2-.12,13.56-7.8,13.8v1.08h28.8v-1.08c-7.68-.24-7.8-7.2-7.8-14.52V8.88c14.64,0,23.76,4.68,28.32,16.32l1.08-.36-5.88-23.76c-.96,1.2-1.92,1.56-7.08,1.56h-46.08c-4.32,0-5.88-.12-7.08-1.56l-5.88,23.76,1.08.36c4.56-11.64,13.68-16.32,28.32-16.32Z"/>
      <path d="m647.23,81.84c.96.24,1.8.48,2.4,1.32l10.2-29.88-1.2-.36c-7.44,15.12-18.84,23.16-36,23.16-12.12,0-12.36-3.84-12.36-13.2V30.72h2.88c12.72,0,20.28,0,24.48,14.04l.96-.36-4.68-26.88-1.08.36c0,6.24-3.36,7.2-13.32,7.2h-9.24v-6.84c0-8.76,2.76-10.08,11.04-10.08,12.36,0,25.2,5.4,30.24,17.52l.96-.36-5.4-24.12c-1.44,1.44-1.92,1.44-6.48,1.44h-51.36v1.08c7.68,1.2,7.8,8.16,7.8,14.64v48.36c0,4.2,0,8.28-2.16,10.92-1.56,1.92-4.44,2.88-5.64,2.88v1.08h55.08c.96,0,2.04.12,2.88.24Z"/>
      <path d="m686.95,72.36c9.84,8.16,22.44,10.8,35.04,10.8,7.8,0,12-.84,16.2-.84.84,0,1.56.12,2.28.48l9.24-24.12-1.2-.48c-5.16,11.16-13.8,18.72-26.52,18.72-21.96,0-36.12-18.72-36.12-39.6,0-7.92,2.52-15.96,7.68-21.96,5.4-6.24,11.76-8.04,19.68-8.04,10.92,0,21.84,5.28,26.28,15.72l.96-.36-5.52-22.68c-.84,1.8-2.76,2.4-4.68,2.4-2.04,0-4.56-.36-7.44-.72-2.88-.24-6.12-.6-9.6-.6-10.8,0-21.24,2.16-29.88,9.24-8.16,6.84-11.88,17.4-11.88,27.84,0,13.2,5.16,25.68,15.48,34.2Z"/>
      <path d="m786.43,8.88v57.84c0,7.2-.12,13.56-7.8,13.8v1.08h28.8v-1.08c-7.68-.24-7.8-7.2-7.8-14.52V8.88c14.64,0,23.76,4.68,28.32,16.32l1.08-.36-5.88-23.76c-.96,1.2-1.92,1.56-7.08,1.56h-46.08c-4.32,0-5.88-.12-7.08-1.56l-5.88,23.76,1.08.36c4.56-11.64,13.68-16.32,28.32-16.32Z"/>
      <path d="m907.51,50.64l-1.2-29.04c-.12-2.16-.12-4.92-.12-6.48,0-9.36,1.68-10.08,7.08-11.4v-1.08h-25.56v1.08c8.88.48,10.2,2.76,10.8,17.04l1.32,29.88c0,1.08.12,4.32.12,5.4,0,4.92-.72,8.64-3.36,12.6-2.88,4.08-10.92,7.8-18.72,7.8-6.36,0-13.08-2.52-16.32-6.6-2.76-3.6-3.6-7.8-3.6-13.44,0-1.56,0-3.24.12-5.04l1.56-30.6c.72-14.16,1.92-16.44,10.32-17.04v-1.08h-30.72v1.08c5.88.96,7.56,2.28,7.56,11.4,0,1.56,0,3.48-.12,5.64l-1.32,26.16c-.24,5.28-.36,9-.36,13.32,0,5.88,1.44,11.4,8.16,16.8,6,4.68,17.28,6.12,23.4,6.12,4.44,0,17.28-.72,25.56-9.96,3.48-3.96,5.52-9.36,5.52-18,0-.96-.12-3.6-.12-4.56Z"/>
      <path d="m957.43,80.52c-7.68-1.08-7.8-7.08-7.8-14.64v-21.48l14.64-4.8c7.92,9.72,18.84,26.4,18.84,36.24,0,3-1.8,4.2-4.44,4.68v1.08h25.8v-1.08c-3.84-.84-5.4-2.52-8.4-10.08-5.04-12.72-11.76-25.44-21-35.76,7.68-4.08,17.28-9.96,17.28-19.8,0-8.16-4.32-12.24-17.28-12.24h-46.44v1.08c7.68,1.08,7.8,8.04,7.8,14.64v48.24c0,6.6-.12,12.72-7.8,13.92v1.08h28.8v-1.08Zm-7.8-62.28c0-2.16.24-5.88,1.44-7.44,2.16-2.64,10.32-2.64,13.8-2.64,7.08,0,14.4.84,14.4,9.48,0,11.16-21.12,18.72-29.64,21.12v-20.52Z"/>
      <path d="m1032.19,80.52c-3.48-.24-6.6-2.64-6.6-6.48,0-2.88.96-5.76,1.92-8.52l7.2-19.8c22.8.36,32.76,17.28,32.76,26.4,0,4.2-1.56,7.44-5.88,8.4v1.08h27.24v-1.08c-4.8-1.2-5.76-4.32-7.32-8.76l-20.52-59.04c-.48-1.32-1.08-3.24-1.08-4.68,0-2.4,1.32-3.72,3.48-4.32v-1.08h-26.64v1.08c2.04.36,3.72,1.68,3.72,3.84,0,2.4-.96,4.68-1.8,6.96l-19.32,51c-1.32,3.48-3.24,8.04-5.4,11.16-1.8,2.52-3.36,3.24-6.24,3.84v1.08h24.48v-1.08Zm15-68.88l13.32,37.8c-5.76-5.52-15.36-9-24.24-9l10.92-28.8Z"/>
      <path d="m1154.35,83.28l10.32-29.76-1.08-.6c-6.48,13.68-18.6,23.16-34.2,23.16-7.32,0-8.88-3.12-8.88-12.84V17.52c0-6.72.12-13.08,7.8-13.8v-1.08h-28.8v1.08c7.68,1.08,7.8,8.04,7.8,14.64v49.2c0,5.88-.72,11.64-7.8,12.96v1.08h47.88c3.24,0,5.76.36,6.96,1.68Z"/>
      <path d="m1228.99,83.28l10.32-29.76-1.08-.6c-6.48,13.68-18.6,23.16-34.2,23.16-7.32,0-8.88-3.12-8.88-12.84V17.52c0-6.72.12-13.08,7.8-13.8v-1.08h-28.8v1.08c7.68,1.08,7.8,8.04,7.8,14.64v49.2c0,5.88-.72,11.64-7.8,12.96v1.08h47.88c3.24,0,5.76.36,6.96,1.68Z"/>
      <path d="m1287.07,65.88v-20.76l19.32-31.08c4.44-7.2,6.84-9.48,12-10.32v-1.08h-23.28v1.08c3.84.24,5.28,1.68,5.28,3.84,0,2.88-2.4,7.08-5.4,12l-11.04,18.12-11.16-17.88c-2.16-3.36-4.8-8.04-4.8-11.4,0-2.52,1.56-4.44,5.88-4.68v-1.08h-31.08v1.08c6,.48,9,6.72,11.88,11.16l19.2,30.24v21.6c0,6.72-.12,12.96-7.8,13.8v1.08h28.8v-1.08c-7.68-.36-7.8-7.44-7.8-14.64Z"/>
      <path d="m157.92,186.52c-7.68-1.08-7.8-8.04-7.8-14.64v-48.24c0-6.6.12-12.72,7.8-13.92v-1.08h-28.8v1.08c7.68,1.08,7.8,8.04,7.8,14.64v48.36c0,6.6-.12,12.84-7.8,13.8v1.08h28.8v-1.08Z"/>
      <path d="m255.36,187.6v-.96c-6-1.32-6.12-4.92-6.12-10.56v-31.92c0-5.4.12-8.4,6.12-9.6v-1.08h-26.88v1.08c7.44,1.2,7.56,8.16,7.56,14.64v18.96c0,9.24-.72,13.92-12.96,13.92-21.6,0-34.56-19.68-34.56-39.72,0-16.92,9.36-29.04,27-29.04,10.92,0,20.76,5.16,25.56,15.24l1.2-.24-4.2-22.2c-1.32,1.8-3,2.76-5.52,2.76-2.76,0-11.16-1.8-18.12-1.8-23.16,0-40.32,12.72-40.32,37.2,0,13.08,5.04,24.96,15.24,33.36,10.56,8.76,21.84,9.96,35.04,9.96h30.96Z"/>
      <path d="m286.92,171.88v-53.64l37.92,31.56c6.24,5.28,6.6,6.36,6.6,12v10.92c0,6.72-.24,12.96-8.04,13.8v1.08h23.64v-1.08c-7.68-1.08-7.8-7.92-7.8-14.64v-48.36c0-6.48.12-12.72,7.8-13.8v-1.08h-23.64v1.08c7.92.84,8.04,7.8,8.04,14.64v14.28l-27.36-22.8c-2.4-1.92-3.72-3.6-3.72-4.68,0-.84.84-1.32,2.52-1.44v-1.08h-31.56v1.08c7.68,1.08,7.8,8.04,7.8,14.64v48.36c0,6.48-.12,12.72-7.8,13.8v1.08h23.4v-1.08c-7.68-.72-7.8-7.8-7.8-14.64Z"/>
      <path d="m391.32,186.52c-7.68-1.08-7.8-8.04-7.8-14.64v-48.24c0-6.6.12-12.72,7.8-13.92v-1.08h-28.8v1.08c7.68,1.08,7.8,8.04,7.8,14.64v48.36c0,6.6-.12,12.84-7.8,13.8v1.08h28.8v-1.08Z"/>
      <path d="m459.24,108.64h-51.72v1.08c7.68,1.2,7.8,8.16,7.8,14.64v48.36c0,6.48-.12,12.72-7.8,13.8v1.08h28.92v-.96c-7.8-.84-7.92-7.8-7.92-14.64v-35.28h3.72c12.96,0,19.2.36,23.76,14.16l.96-.24-4.68-26.88-1.08.36c-.12,6.6-4.32,6.96-9.84,6.96h-12.84v-6.36c0-8.16.6-10.56,11.16-10.56,16.8,0,27.6,9.6,30.36,17.88l.96-.24-5.4-24.72c-1.08,1.32-2.64,1.56-6.36,1.56Z"/>
      <path d="m510.12,186.52c-7.68-1.08-7.8-8.04-7.8-14.64v-48.24c0-6.6.12-12.72,7.8-13.92v-1.08h-28.8v1.08c7.68,1.08,7.8,8.04,7.8,14.64v48.36c0,6.6-.12,12.84-7.8,13.8v1.08h28.8v-1.08Z"/>
      <path d="m595.08,188.8l9.24-24.12-1.2-.48c-5.16,11.16-13.8,18.72-26.52,18.72-21.96,0-36.12-18.72-36.12-39.6,0-7.92,2.52-15.96,7.68-21.96,5.4-6.24,11.76-8.04,19.68-8.04,10.92,0,21.84,5.28,26.28,15.72l.96-.36-5.52-22.68c-.84,1.8-2.76,2.4-4.68,2.4-2.04,0-4.56-.36-7.44-.72-2.88-.24-6.12-.6-9.6-.6-10.8,0-21.24,2.16-29.88,9.24-8.16,6.84-11.88,17.4-11.88,27.84,0,13.2,5.16,25.68,15.48,34.2,9.84,8.16,22.44,10.8,35.04,10.8,7.8,0,12-.84,16.2-.84.84,0,1.56.12,2.28.48Z"/>
      <path d="m638.16,151.72c22.8.36,32.76,17.28,32.76,26.4,0,4.2-1.56,7.44-5.88,8.4v1.08h27.24v-1.08c-4.8-1.2-5.76-4.32-7.32-8.76l-20.52-59.04c-.48-1.32-1.08-3.24-1.08-4.68,0-2.4,1.32-3.72,3.48-4.32v-1.08h-26.64v1.08c2.04.36,3.72,1.68,3.72,3.84,0,2.4-.96,4.68-1.8,6.96l-19.32,51c-1.32,3.48-3.24,8.04-5.4,11.16-1.8,2.52-3.36,3.24-6.24,3.84v1.08h24.48v-1.08c-3.48-.24-6.6-2.64-6.6-6.48,0-2.88.96-5.76,1.92-8.52l7.2-19.8Zm12.48-34.08l13.32,37.8c-5.76-5.52-15.36-9-24.24-9l10.92-28.8Z"/>
      <path d="m754.19,186.52v1.08h23.64v-1.08c-7.68-1.08-7.8-7.92-7.8-14.64v-48.36c0-6.48.12-12.72,7.8-13.8v-1.08h-23.64v1.08c7.92.84,8.04,7.8,8.04,14.64v14.28l-27.36-22.8c-2.4-1.92-3.72-3.6-3.72-4.68,0-.84.84-1.32,2.52-1.44v-1.08h-31.56v1.08c7.68,1.08,7.8,8.04,7.8,14.64v48.36c0,6.48-.12,12.72-7.8,13.8v1.08h23.4v-1.08c-7.68-.72-7.8-7.8-7.8-14.64v-53.64l37.92,31.56c6.24,5.28,6.6,6.36,6.6,12v10.92c0,6.72-.24,12.96-8.04,13.8Z"/>
      <path d="m858.11,131.2l1.08-.36-5.88-23.76c-.96,1.2-1.92,1.56-7.08,1.56h-46.08c-4.32,0-5.88-.12-7.08-1.56l-5.88,23.76,1.08.36c4.56-11.64,13.68-16.32,28.32-16.32v57.84c0,7.2-.12,13.56-7.8,13.8v1.08h28.8v-1.08c-7.68-.24-7.8-7.2-7.8-14.52v-57.12c14.64,0,23.76,4.68,28.32,16.32Z"/>
      <path d="m935.03,171.88v-35.52h35.76v36.36c0,6.84-.12,13.2-7.8,13.8v1.08h28.8v-1.08c-7.68-.96-7.8-7.92-7.8-14.64v-48.36c0-6.6.12-12.84,7.8-13.8v-1.08h-28.8v1.08c7.8.6,7.68,7.68,7.8,14.64v6.24h-35.76v-7.08c0-6.72.12-12.96,7.8-13.8v-1.08h-28.8v1.08c7.68,1.08,7.8,8.04,7.8,14.64v48.36c0,6.48-.12,12.72-7.8,13.8v1.08h28.8v-1.08c-7.68-.72-7.8-7.8-7.8-14.64Z"/>
      <path d="m1050.35,107.08c-23.64,0-42.24,17.28-42.24,41.28,0,10.92,4.8,22.2,12.84,29.76,8.04,7.56,18.6,11.04,29.52,11.04,22.56,0,42.72-16.56,42.72-39.96,0-24.72-18.48-42.12-42.84-42.12Zm2.88,75.84c-20.04,0-30.72-21-30.72-38.88,0-15.48,7.92-30.72,25.08-30.72s31.2,18.12,31.2,39.48c0,15.48-8.76,30.12-25.56,30.12Z"/>
      <path d="m1175.87,172.72c0,6.72-.12,12.96-7.8,13.8v1.08h28.8v-1.08c-7.68-1.2-7.8-8.04-7.8-14.64v-48.36c0-6.48.12-12.6,7.8-13.8v-1.08h-28.92v1.08c1.68.36,2.28,1.2,2.28,2.52,0,1.8-1.32,4.44-3.12,7.32l-13.68,22.2-13.8-25.2c-.96-1.8-1.56-3.24-1.56-4.44s.6-2.04,2.04-2.4v-1.08h-30.36v1.08c7.68,1.08,7.8,8.04,7.8,14.64v48.36c0,6.6-.12,12.72-7.8,13.8v1.08h23.4v-1.08c-7.68-.72-7.8-7.8-7.8-14.64v-54.96l24.24,42.6,26.28-42.6v55.8Z"/>
      <path d="m1245.47,182.08c-12.12,0-12.36-3.84-12.36-13.2v-32.16h2.88c12.72,0,20.28,0,24.48,14.04l.96-.36-4.68-26.88-1.08.36c0,6.24-3.36,7.2-13.32,7.2h-9.24v-6.84c0-8.76,2.76-10.08,11.04-10.08,12.36,0,25.2,5.4,30.24,17.52l.96-.36-5.4-24.12c-1.44,1.44-1.92,1.44-6.48,1.44h-51.36v1.08c7.68,1.2,7.8,8.16,7.8,14.64v48.36c0,4.2,0,8.28-2.16,10.92-1.56,1.92-4.44,2.88-5.64,2.88v1.08h55.08c.96,0,2.04.12,2.88.24.96.24,1.8.48,2.4,1.32l10.2-29.88-1.2-.36c-7.44,15.12-18.84,23.16-36,23.16Z"/>
    </g>
  </g>
</svg>
