<?xml version="1.0" encoding="UTF-8"?>
<svg id="Layer_2" data-name="Layer 2" xmlns="http://www.w3.org/2000/svg" viewBox="0 0 377.12 69.35">
  <g id="S">
    <path d="m26.11,38.5l-.43.11c-1.67-4.89-6.72-8.22-11.87-8.22-3.01,0-6.77,1.02-6.77,4.46,0,1.83,1.4,2.69,5.53,3.98l7.52,2.26c6.98,2.1,9.78,6.12,9.78,10.53,0,8.49-5.75,12.73-14.56,12.73-4.41,0-7.84-1.72-10.37-1.72-.81,0-1.34.43-1.83.97l-3.12-13.43.48-.16c1.93,6.29,6.93,11.23,13.81,11.23s10.21-2.74,10.21-7.41-4.24-5.91-7.9-7.04l-7.15-2.2c-4.19-1.29-7.79-3.22-7.79-8.17,0-6.29,6.12-8.97,11.01-8.97,4.14,0,6.18,1.34,9.35,1.34.91,0,1.4-.32,1.93-.97l2.15,10.69Z"/>
  </g>
  <g id="S-2" data-name="S">
    <path d="m367.39,38.24l-.43.11c-1.67-4.89-6.72-8.22-11.87-8.22-3.01,0-6.77,1.02-6.77,4.46,0,1.83,1.4,2.69,5.53,3.98l7.52,2.26c6.98,2.1,9.78,6.12,9.78,10.53,0,8.49-5.75,12.73-14.56,12.73-4.41,0-7.84-1.72-10.37-1.72-.81,0-1.34.43-1.83.97l-3.12-13.43.48-.16c1.93,6.29,6.93,11.23,13.81,11.23s10.21-2.74,10.21-7.41-4.24-5.91-7.9-7.04l-7.15-2.2c-4.19-1.29-7.79-3.22-7.79-8.17,0-6.29,6.12-8.97,11.01-8.97,4.14,0,6.18,1.34,9.35,1.34.91,0,1.4-.32,1.93-.97l2.15,10.69Z"/>
  </g>
  <g id="_" data-name="®">
    <path d="m377.12,32.55c0,2.08-1.68,3.85-3.83,3.85-2.29,0-3.87-1.86-3.87-3.85s1.57-3.85,3.87-3.85c2.14,0,3.83,1.75,3.83,3.85Zm-7.1,0c0,1.68,1.35,3.24,3.26,3.24s3.23-1.49,3.23-3.24-1.42-3.24-3.23-3.24c-1.92,0-3.26,1.57-3.26,3.24Zm5.55,2.06h-1.53v-.22c.09-.02.24-.06.24-.15,0-.17-.17-.68-.98-1.68-.26.09-.39.15-.68.22v.83c0,.66.06.72.44.77v.22h-1.73v-.22c.37-.07.42-.09.42-.77v-2.14c0-.68-.06-.7-.42-.77v-.22h2.53c.31,0,1.03,0,1.03.72,0,.54-.46.83-.81,1.03.42.48.79,1.12,1.11,1.81.09.26.17.31.39.37v.2Zm-2.95-2.3c.5-.18,1.36-.52,1.36-1,0-.35-.41-.39-.74-.39-.63,0-.63.11-.63.41v.98Z"/>
  </g>
  <g id="Douglas_Newby_Associates" data-name="Douglas Newby &amp;amp; Associates">
    <g>
      <path d="m42.51,56.18c1.58,0,2.96.24,4.2,1.29,1.16.98,1.86,2.46,1.86,3.98,0,1.34-.54,2.72-1.59,3.59-1.19.99-2.45,1.02-3.92,1.02h-4.13v-.13c.96-.15.98-.92.98-1.73v-6.05c0-.83-.02-1.7-.98-1.83v-.14h3.57Zm-.95,7.25c0,1.76.3,1.94,1.55,1.94,2.37,0,3.66-1.47,3.66-3.81,0-2.49-1.47-4.68-4.08-4.68-.99,0-1.13.15-1.13,1.58v4.98Z"/>
      <path d="m57.07,66.21c-2.28,0-4.02-1.44-4.02-3.8s1.83-3.9,4.17-3.9,4.04,1.37,4.04,3.75-1.83,3.95-4.19,3.95Zm-2.31-4.1c0,1.52.66,3.38,2.45,3.38,1.49,0,2.34-1.47,2.34-3.02s-.65-3.24-2.42-3.24-2.37,1.37-2.37,2.88Z"/>
      <path d="m73.07,64.25c0,.72.01,1.68.93,1.68v.13h-2.16c-.2-.48-.27-1.01-.3-1.53-.87.8-1.98,1.68-3.21,1.68-1.41,0-1.8-.99-1.8-2.24v-3.27c0-.8-.01-1.65-.9-1.71v-.13l2.43-.2v4.52c0,1.32.18,1.98,1.1,1.98.74,0,1.5-.5,1.91-1.1.47-.69.48-1.47.48-2.27v-1.1c0-.83-.02-1.67-.9-1.71v-.13l2.43-.2v5.59Z"/>
      <path d="m86.05,58.8c-.74.04-.9.24-.9,1.71v3.95c0,.54.02.74.42,1.13.39.38.66.69.66,1.28,0,1.61-1.98,2.49-4.04,2.49-1.41,0-2.9-.38-3.92-1.41l1.68-1.7.07.09c-.13.22-.21.38-.21.66,0,.99.98,1.68,2.39,1.68s2.43-.65,2.43-1.58c0-.99-.81-1.04-1.58-1.04-1.16,0-2.22-.04-3.2-.74-1.05-.74-1.56-1.95-1.56-3.21,0-2.3,1.38-3.45,3.6-3.45h4.14v.14Zm-2.43,1.68c0-.9-.17-1.22-1.2-1.22-1.68,0-2.49,1.34-2.49,2.88,0,2.03,1.46,3.2,2.87,3.2.36,0,.6-.03.83-.04v-4.82Z"/>
      <path d="m92.84,64.22c0,.81.02,1.67.9,1.71v.13h-3.33v-.13c.89-.11.9-.95.9-1.71v-6.19c0-.83-.02-1.67-.9-1.71v-.14l2.43-.39v8.42Z"/>
      <path d="m105.03,63.86c0,.9.02,1.86,1.07,2.07v.13h-2.06c-.3-.39-.5-.86-.51-1.35-.59,1.07-1.83,1.5-2.99,1.5-1.37,0-2.37-.65-2.37-1.76,0-1.86,2.01-2.64,5.24-3.32v-.29c0-1.11-.41-1.5-1.52-1.5-1.43,0-2.6.71-3.2,2.04l.24-2.46c.17.12.29.2.45.2.14,0,.29-.04.51-.12.95-.33,1.58-.5,2.6-.5,1.91,0,2.54.65,2.54,2.52v2.82Zm-1.62-2.1c-1.19.26-3.53.96-3.53,2.51,0,.71.57,1.11,1.22,1.11,1.92,0,2.31-1.77,2.31-3v-.62Z"/>
      <path d="m115.77,61.06h-.1c-.21-1.17-1.49-1.83-2.6-1.83-.59,0-1.46.2-1.46.95,0,1.56,4.76.87,4.76,3.48,0,1.73-1.74,2.55-3.24,2.55-1.32,0-2.52-.45-2.82-.45-.18,0-.27.09-.38.21l-.12-2.94.12-.03c.18,1.52,1.46,2.49,2.96,2.49.84,0,1.95-.45,1.95-1.4,0-1.7-4.76-.92-4.76-3.6,0-1.47,1.59-1.98,2.81-1.98s2.09.35,2.42.35c.15,0,.24-.03.36-.12l.1,2.33Z"/>
      <path d="m138.26,56.32c-.96.13-.98.92-.98,1.73v6.05c0,.84.02,1.7.98,1.83v.13h-2.96v-.13c.98-.11,1.01-.89,1.01-1.73v-1.37c0-.71-.04-.84-.83-1.5l-4.74-3.95v6.71c0,.86.01,1.74.98,1.83v.13h-2.93v-.13c.96-.14.98-.92.98-1.73v-6.05c0-.83-.02-1.7-.98-1.83v-.14h3.95v.14c-.21.01-.32.08-.32.18,0,.14.17.35.47.59l3.42,2.85v-1.79c0-.86-.02-1.73-1.01-1.83v-.14h2.96v.14Z"/>
      <path d="m144.38,62.69c.24,1.55,1.55,2.81,3.12,2.81.6,0,1.37-.35,1.82-.74.36-.32.59-.72.8-1.14l.14.06-.78,2.48c-.09-.09-.23-.1-.5-.1-.33,0-.62.06-.93.1-.32.04-.66.08-1.16.08-1.26,0-4.22-.98-4.22-3.86,0-2.24,1.74-3.86,3.95-3.86,1.62,0,3.08.98,3.5,2.58l-5.74,1.59Zm3.98-1.79c-.29-.84-.92-1.67-1.88-1.67-1.53,0-2.19,1.46-2.19,2.82l4.07-1.16Z"/>
      <path d="m165.5,58.8c-.77.01-.93.9-1.13,1.49l-1.52,4.7c-.08.25-.15.48-.15.65,0,.18.08.29.32.3v.13h-2.28v-.13c.18-.02.24-.09.24-.24,0-.14-.04-.32-.14-.56l-1.2-3.32-1.19,3.41c-.04.13-.12.27-.12.45,0,.14.06.23.26.26v.13h-2.22v-.13c.21-.05.29-.15.29-.33,0-.15-.06-.38-.14-.63l-1.46-4.88c-.15-.5-.3-1.29-.96-1.29v-.14h2.96v.14c-.38.03-.5.25-.5.57,0,.22.04.51.12.8l1.23,4.76,2.01-6.14h.12l2.13,5.9,1.32-4.41c.1-.38.21-.71.21-.96,0-.3-.13-.48-.53-.51v-.14h2.31v.14Z"/>
      <path d="m171.94,58.57c.98-.06,1.2-.06,1.37-.06,2.6,0,4.41,1.71,4.41,4.07,0,2.22-1.4,3.48-4.32,3.48h-3.89v-.13c.89-.12.9-.96.9-1.71v-6.19c0-1.07-.08-1.71-.9-1.71v-.14l2.43-.39v2.78Zm0,5.65c0,.8.12,1.13,1.32,1.13,1.77,0,2.84-1.13,2.84-2.87,0-1.88-1.43-3.24-3.29-3.24-.29,0-.59.03-.87.06v4.92Z"/>
      <path d="m189.44,58.8c-.5.06-.77.42-1.13,1.35l-2.55,6.68c-.5,1.29-1.07,2.45-2.67,2.45-.51,0-1.07-.21-1.47-.54l.93-2.03.12.08c-.05.13-.06.27-.06.41,0,.54.3,1.04.87,1.04.96,0,1.41-1.07,1.41-1.88,0-.72-.36-1.62-.63-2.28l-1.61-4.01c-.26-.65-.51-1.25-1.04-1.26v-.14h3.02v.14c-.38.04-.5.22-.5.46s.12.53.21.78l1.55,4.14,1.41-3.75c.17-.45.36-.87.36-1.17,0-.25-.13-.42-.53-.46v-.14h2.3v.14Z"/>
      <path d="m212.66,66.06h-3.45v-.13c.47-.09.66-.3.66-.6,0-.33-.24-.75-.66-1.19-.83,1.4-2.37,2.12-3.96,2.12-1.88,0-3.84-1.22-3.84-3.26,0-1.56,1.16-2.73,2.64-3.03-.71-.42-1.17-1.05-1.17-1.89,0-1.41,1.43-2.09,2.64-2.09s2.4.66,2.4,2c0,.21-.04.42-.14.62.81.51,1.73.93,2.69.93.54,0,1.29-.25,1.29-.9,0-.34-.24-.58-.59-.58-.29,0-.51.13-.71.27.26-.47.74-.87,1.29-.87.77,0,1.25.57,1.25,1.32,0,1.17-1.07,1.89-2.18,1.89-.5,0-.87-.13-1.31-.36.27.57.38,1.16.38,1.65,0,.29-.03.56-.09.77.8.71,1.44,1.56,1.97,2.49.23.39.41.65.89.72v.13Zm-8.17-5.77c-.93.6-1.44,1.26-1.44,2.43,0,1.53,1.04,2.67,2.6,2.67,1.22,0,2.39-.77,2.96-1.83l-4.11-3.27Zm2.3-2.4c0-.77-.53-1.25-1.29-1.25-.62,0-1.22.38-1.22,1.04,0,.74.78,1.4,1.37,1.73.6-.27,1.14-.81,1.14-1.52Zm2.31,4.17c.02-.15.02-.3.02-.45,0-1.19-.48-2.3-1.4-2.91-.39.62-.95.87-1.67,1.01l3.05,2.36Z"/>
      <path d="m232.07,56.32c-.27.08-.44.24-.44.54,0,.18.08.42.14.59l2.57,7.39c.2.56.32.95.92,1.1v.13h-3.41v-.13c.54-.12.74-.53.74-1.05,0-1.14-1.25-3.26-4.1-3.3l-.9,2.48c-.12.34-.24.71-.24,1.07,0,.48.39.78.83.81v.13h-3.06v-.13c.36-.08.56-.17.78-.48.27-.39.51-.96.68-1.4l2.42-6.38c.1-.29.23-.57.23-.87,0-.27-.21-.44-.47-.48v-.14h3.33v.14Zm-3.39,4.59c1.11,0,2.31.44,3.03,1.13l-1.67-4.73-1.37,3.6Z"/>
      <path d="m244.85,61.06h-.1c-.21-1.17-1.49-1.83-2.6-1.83-.59,0-1.46.2-1.46.95,0,1.56,4.76.87,4.76,3.48,0,1.73-1.74,2.55-3.24,2.55-1.32,0-2.52-.45-2.82-.45-.18,0-.27.09-.38.21l-.12-2.94.12-.03c.18,1.52,1.46,2.49,2.96,2.49.84,0,1.95-.45,1.95-1.4,0-1.7-4.76-.92-4.76-3.6,0-1.47,1.59-1.98,2.81-1.98s2.09.35,2.42.35c.15,0,.24-.03.36-.12l.1,2.33Z"/>
      <path d="m255.66,61.06h-.1c-.21-1.17-1.49-1.83-2.6-1.83-.59,0-1.46.2-1.46.95,0,1.56,4.76.87,4.76,3.48,0,1.73-1.74,2.55-3.24,2.55-1.32,0-2.52-.45-2.82-.45-.18,0-.27.09-.38.21l-.12-2.94.12-.03c.18,1.52,1.46,2.49,2.96,2.49.84,0,1.95-.45,1.95-1.4,0-1.7-4.76-.92-4.76-3.6,0-1.47,1.59-1.98,2.81-1.98s2.09.35,2.42.35c.15,0,.24-.03.36-.12l.1,2.33Z"/>
      <path d="m264.61,66.21c-2.28,0-4.02-1.44-4.02-3.8s1.83-3.9,4.17-3.9,4.04,1.37,4.04,3.75-1.83,3.95-4.19,3.95Zm-2.31-4.1c0,1.52.66,3.38,2.45,3.38,1.49,0,2.34-1.47,2.34-3.02s-.65-3.24-2.42-3.24-2.37,1.37-2.37,2.88Z"/>
      <path d="m279.87,60.82l-.09.04c-.5-.99-1.34-1.64-2.46-1.64-1.59,0-2.43,1.52-2.43,2.99,0,.8.24,1.56.77,2.18.53.62,1.37,1.1,2.18,1.1,1.04,0,2.12-.59,2.61-1.55l.1.06-.77,2.16c-.08-.05-.18-.08-.32-.08-.17,0-.47.03-.8.06-.32.03-.66.06-.9.06-2.42,0-4.5-1.52-4.5-4.1,0-2.07,1.44-3.6,3.51-3.6.35,0,.72.05,1.07.08.36.03.71.09.96.09s.42-.03.63-.17l.44,2.31Z"/>
      <path d="m286.93,64.22c0,.81.02,1.67.9,1.71v.13h-3.33v-.13c.89-.08.9-.93.9-1.71v-3.51c0-.78-.02-1.62-.9-1.71v-.13l2.43-.2v5.56Zm.24-7.64c0,.56-.39,1.13-.99,1.13s-1.04-.48-1.04-1.08.38-1.11,1.02-1.11c.57,0,1.01.51,1.01,1.07Z"/>
      <path d="m298.95,63.86c0,.9.02,1.86,1.07,2.07v.13h-2.06c-.3-.39-.5-.86-.51-1.35-.59,1.07-1.83,1.5-2.99,1.5-1.37,0-2.37-.65-2.37-1.76,0-1.86,2.01-2.64,5.24-3.32v-.29c0-1.11-.41-1.5-1.52-1.5-1.43,0-2.6.71-3.2,2.04l.24-2.46c.17.12.29.2.45.2.14,0,.29-.04.51-.12.95-.33,1.58-.5,2.6-.5,1.91,0,2.54.65,2.54,2.52v2.82Zm-1.62-2.1c-1.19.26-3.53.96-3.53,2.51,0,.71.57,1.11,1.22,1.11,1.92,0,2.31-1.77,2.31-3v-.62Z"/>
      <path d="m305.81,58.8h1.2c.56,0,.75-.08.96-.26l-.42,1.07c-.15-.17-.45-.17-.65-.17h-1.1v4.38c0,.98.17,1.52,1.07,1.52.59,0,1.05-.24,1.43-.69l.09.04-.51,1.23c-.6.19-1.26.29-1.88.29-1.44,0-1.73-.96-1.73-2.19v-4.58h-.99v-.14c.83-.21,1.26-1.01,1.26-1.88,0-.25-.05-.51-.09-.77l1.35-.6v2.73Z"/>
      <path d="m313.99,62.69c.24,1.55,1.55,2.81,3.12,2.81.6,0,1.37-.35,1.82-.74.36-.32.59-.72.8-1.14l.14.06-.78,2.48c-.09-.09-.23-.1-.5-.1-.33,0-.62.06-.93.1-.31.04-.66.08-1.16.08-1.26,0-4.22-.98-4.22-3.86,0-2.24,1.74-3.86,3.95-3.86,1.62,0,3.08.98,3.5,2.58l-5.74,1.59Zm3.98-1.79c-.29-.84-.92-1.67-1.88-1.67-1.53,0-2.19,1.46-2.19,2.82l4.07-1.16Z"/>
      <path d="m330.11,61.06h-.1c-.21-1.17-1.49-1.83-2.6-1.83-.59,0-1.46.2-1.46.95,0,1.56,4.76.87,4.76,3.48,0,1.73-1.74,2.55-3.24,2.55-1.32,0-2.52-.45-2.82-.45-.18,0-.27.09-.38.21l-.12-2.94.12-.03c.18,1.52,1.46,2.49,2.96,2.49.84,0,1.95-.45,1.95-1.4,0-1.7-4.76-.92-4.76-3.6,0-1.47,1.59-1.98,2.81-1.98s2.09.35,2.42.35c.15,0,.24-.03.36-.12l.1,2.33Z"/>
    </g>
  </g>
  <g id="Architecturally">
    <g>
      <path d="m42.33.98c-.57.16-.92.51-.92,1.14,0,.38.16.88.28,1.23l5.4,15.55c.41,1.17.66,1.99,1.93,2.31v.28h-7.17v-.28c1.14-.25,1.55-1.11,1.55-2.21,0-2.4-2.62-6.86-8.63-6.95l-1.9,5.21c-.25.73-.51,1.49-.51,2.24,0,1.01.82,1.64,1.74,1.71v.28h-6.45v-.28c.76-.16,1.17-.35,1.64-1.01.57-.82,1.07-2.02,1.42-2.94l5.09-13.43c.22-.6.47-1.2.47-1.83,0-.57-.44-.92-.98-1.01v-.28h7.02v.28Zm-7.14,9.67c2.34,0,4.87.92,6.38,2.37l-3.51-9.96-2.88,7.58Z"/>
      <path d="m64.07.7c3.41,0,4.55,1.07,4.55,3.22,0,2.59-2.53,4.14-4.55,5.21,2.43,2.72,4.2,6.07,5.53,9.42.79,1.99,1.2,2.43,2.21,2.65v.28h-6.79v-.28c.7-.13,1.17-.44,1.17-1.23,0-2.59-2.88-6.98-4.96-9.54l-3.86,1.26v5.66c0,1.99.03,3.57,2.05,3.86v.28h-7.58v-.28c2.02-.32,2.05-1.93,2.05-3.67V4.83c0-1.74-.03-3.57-2.05-3.86v-.28h12.23Zm-6.7,9.51c2.24-.63,7.81-2.62,7.81-5.56,0-2.27-1.93-2.5-3.79-2.5-.92,0-3.07,0-3.63.7-.32.41-.38,1.39-.38,1.96v5.4Z"/>
      <path d="m92.29,5.97l-.25.09c-1.17-2.75-4.04-4.14-6.92-4.14-2.09,0-3.76.47-5.18,2.12-1.36,1.58-2.02,3.7-2.02,5.78,0,5.5,3.73,10.43,9.51,10.43,3.35,0,5.62-1.99,6.98-4.93l.32.13-2.43,6.35c-.19-.09-.38-.13-.6-.13-1.11,0-2.21.22-4.27.22-3.32,0-6.64-.7-9.23-2.84-2.72-2.24-4.08-5.53-4.08-9.01,0-2.75.98-5.53,3.13-7.33,2.28-1.87,5.02-2.43,7.87-2.43.92,0,1.77.09,2.53.16.76.09,1.42.19,1.96.19.51,0,1.01-.16,1.23-.63l1.45,5.97Z"/>
      <path d="m118.62.98c-2.02.25-2.05,1.9-2.05,3.63v12.74c0,1.77.03,3.6,2.05,3.86v.28h-7.58v-.28c2.02-.16,2.05-1.83,2.05-3.63V8h-9.42v9.35c0,1.8.03,3.67,2.05,3.86v.28h-7.58v-.28c2.02-.28,2.05-1.93,2.05-3.63V4.83c0-1.74-.03-3.57-2.05-3.86v-.28h7.58v.28c-2.02.22-2.05,1.86-2.05,3.63v1.86h9.42v-1.64c-.03-1.83,0-3.7-2.05-3.86v-.28h7.58v.28Z"/>
      <path d="m130.56.98c-2.02.32-2.05,1.93-2.05,3.67v12.7c0,1.74.03,3.57,2.05,3.86v.28h-7.58v-.28c2.02-.25,2.05-1.9,2.05-3.63V4.83c0-1.74-.03-3.57-2.05-3.86v-.28h7.58v.28Z"/>
      <path d="m152.39,6.54l-.28.09c-1.2-3.07-3.6-4.3-7.46-4.3v15.04c0,1.93.03,3.76,2.05,3.82v.28h-7.58v-.28c2.02-.06,2.05-1.74,2.05-3.63V2.34c-3.86,0-6.26,1.23-7.46,4.3l-.28-.09,1.55-6.26c.32.38.73.41,1.86.41h12.13c1.36,0,1.61-.1,1.86-.41l1.55,6.26Z"/>
      <path d="m171.83,6.67l-.25.1c-1.33-3.19-4.71-4.61-7.96-4.61-2.18,0-2.91.35-2.91,2.65v1.8h2.43c2.62,0,3.51-.25,3.51-1.9l.28-.09,1.23,7.08-.25.09c-1.11-3.7-3.1-3.7-6.45-3.7h-.76v8.47c0,2.46.06,3.48,3.25,3.48,4.52,0,7.52-2.12,9.48-6.1l.32.09-2.69,7.87c-.16-.22-.38-.29-.63-.35-.22-.03-.51-.06-.76-.06h-14.5v-.28c.32,0,1.07-.25,1.49-.76.57-.7.57-1.77.57-2.88V4.83c0-1.71-.03-3.54-2.05-3.86v-.28h13.53c1.2,0,1.33,0,1.71-.38l1.42,6.35Z"/>
      <path d="m194.99,5.97l-.25.09c-1.17-2.75-4.04-4.14-6.92-4.14-2.09,0-3.76.47-5.18,2.12-1.36,1.58-2.02,3.7-2.02,5.78,0,5.5,3.73,10.43,9.51,10.43,3.35,0,5.62-1.99,6.98-4.93l.32.13-2.43,6.35c-.19-.09-.38-.13-.6-.13-1.11,0-2.21.22-4.27.22-3.32,0-6.64-.7-9.23-2.84-2.72-2.24-4.08-5.53-4.08-9.01,0-2.75.98-5.53,3.13-7.33,2.28-1.87,5.02-2.43,7.87-2.43.92,0,1.77.09,2.53.16.76.09,1.42.19,1.96.19.51,0,1.01-.16,1.23-.63l1.45,5.97Z"/>
      <path d="m218.31,6.54l-.28.09c-1.2-3.07-3.6-4.3-7.46-4.3v15.04c0,1.93.03,3.76,2.05,3.82v.28h-7.58v-.28c2.02-.06,2.05-1.74,2.05-3.63V2.34c-3.86,0-6.26,1.23-7.46,4.3l-.28-.09,1.55-6.26c.32.38.73.41,1.86.41h12.13c1.36,0,1.61-.1,1.86-.41l1.55,6.26Z"/>
      <path d="m240.49.98c-1.42.35-1.86.54-1.86,3,0,.41,0,1.14.03,1.71l.32,7.65c0,.25.03.95.03,1.2,0,2.28-.54,3.7-1.45,4.74-2.18,2.43-5.56,2.62-6.73,2.62-1.61,0-4.58-.38-6.16-1.61-1.77-1.42-2.15-2.88-2.15-4.42,0-1.14.03-2.12.1-3.51l.35-6.89c.03-.57.03-1.07.03-1.49,0-2.4-.44-2.75-1.99-3v-.28h8.09v.28c-2.21.16-2.53.76-2.72,4.49l-.41,8.06c-.03.47-.03.92-.03,1.33,0,1.48.22,2.59.95,3.54.85,1.07,2.62,1.74,4.3,1.74,2.05,0,4.17-.98,4.93-2.05.69-1.04.88-2.02.88-3.32,0-.28-.03-1.14-.03-1.42l-.35-7.87c-.16-3.76-.51-4.36-2.84-4.49v-.28h6.73v.28Z"/>
      <path d="m256.77.7c3.41,0,4.55,1.07,4.55,3.22,0,2.59-2.53,4.14-4.55,5.21,2.43,2.72,4.2,6.07,5.53,9.42.79,1.99,1.2,2.43,2.21,2.65v.28h-6.79v-.28c.7-.13,1.17-.44,1.17-1.23,0-2.59-2.88-6.98-4.96-9.54l-3.86,1.26v5.66c0,1.99.03,3.57,2.05,3.86v.28h-7.58v-.28c2.02-.32,2.05-1.93,2.05-3.67V4.83c0-1.74-.03-3.57-2.05-3.86v-.28h12.23Zm-6.7,9.51c2.24-.63,7.81-2.62,7.81-5.56,0-2.27-1.93-2.5-3.79-2.5-.92,0-3.07,0-3.63.7-.32.41-.38,1.39-.38,1.96v5.4Z"/>
      <path d="m280.02.98c-.57.16-.92.51-.92,1.14,0,.38.16.88.28,1.23l5.4,15.55c.41,1.17.66,1.99,1.93,2.31v.28h-7.17v-.28c1.14-.25,1.55-1.11,1.55-2.21,0-2.4-2.62-6.86-8.63-6.95l-1.9,5.21c-.25.73-.51,1.49-.51,2.24,0,1.01.82,1.64,1.74,1.71v.28h-6.45v-.28c.76-.16,1.17-.35,1.64-1.01.57-.82,1.07-2.02,1.42-2.94l5.09-13.43c.22-.6.47-1.2.47-1.83,0-.57-.44-.92-.98-1.01v-.28h7.02v.28Zm-7.14,9.67c2.34,0,4.87.92,6.38,2.37l-3.51-9.96-2.88,7.58Z"/>
      <path d="m297.12.98c-2.02.19-2.05,1.86-2.05,3.63v12.04c0,2.56.41,3.38,2.34,3.38,4.11,0,7.3-2.5,9.01-6.1l.28.16-2.72,7.84c-.32-.35-.98-.44-1.83-.44h-12.61v-.28c1.86-.35,2.05-1.86,2.05-3.41V4.83c0-1.74-.03-3.57-2.05-3.86v-.28h7.58v.28Z"/>
      <path d="m316.77.98c-2.02.19-2.05,1.86-2.05,3.63v12.04c0,2.56.41,3.38,2.34,3.38,4.11,0,7.3-2.5,9.01-6.1l.28.16-2.72,7.84c-.32-.35-.98-.44-1.83-.44h-12.61v-.28c1.86-.35,2.05-1.86,2.05-3.41V4.83c0-1.74-.03-3.57-2.05-3.86v-.28h7.58v.28Z"/>
      <path d="m347.17.98c-1.36.22-1.99.82-3.16,2.72l-5.09,8.18v5.47c0,1.9.03,3.76,2.05,3.86v.28h-7.58v-.28c2.02-.22,2.05-1.86,2.05-3.63v-5.69l-5.06-7.96c-.76-1.17-1.55-2.81-3.13-2.94v-.28h8.18v.28c-1.14.06-1.55.57-1.55,1.23,0,.88.7,2.12,1.26,3l2.94,4.71,2.91-4.77c.79-1.3,1.42-2.4,1.42-3.16,0-.57-.38-.95-1.39-1.01v-.28h6.13v.28Z"/>
    </g>
  </g>
  <g id="ignificant_home" data-name="ignificant home">
    <g>
      <path d="m41.59,28.89c-2.02.32-2.05,1.93-2.05,3.67v12.7c0,1.74.03,3.57,2.05,3.86v.28h-7.58v-.28c2.02-.25,2.05-1.9,2.05-3.63v-12.73c0-1.74-.03-3.57-2.05-3.86v-.28h7.58v.28Z"/>
      <path d="m63.8,33.79l-.32.06c-1.26-2.65-3.86-4.01-6.73-4.01-4.65,0-7.11,3.19-7.11,7.65,0,5.28,3.41,10.46,9.1,10.46,3.22,0,3.41-1.23,3.41-3.67v-4.99c0-1.71-.03-3.54-1.99-3.86v-.28h7.08v.28c-1.58.32-1.61,1.11-1.61,2.53v8.41c0,1.48.03,2.43,1.61,2.78v.25h-8.15c-3.48,0-6.45-.32-9.23-2.62-2.69-2.21-4.01-5.34-4.01-8.79,0-6.45,4.52-9.8,10.62-9.8,1.83,0,4.04.47,4.77.47.66,0,1.11-.25,1.45-.73l1.11,5.85Z"/>
      <path d="m91.39,28.89c-2.02.28-2.05,1.93-2.05,3.63v12.74c0,1.77.03,3.57,2.05,3.86v.28h-6.23v-.28c2.05-.22,2.12-1.86,2.12-3.63v-2.88c0-1.49-.09-1.77-1.74-3.16l-9.99-8.31v14.13c0,1.8.03,3.67,2.05,3.86v.28h-6.16v-.28c2.02-.28,2.05-1.93,2.05-3.63v-12.73c0-1.74-.03-3.57-2.05-3.86v-.28h8.31v.28c-.44.03-.66.16-.66.38,0,.28.35.73.98,1.23l7.21,6v-3.76c0-1.8-.03-3.63-2.12-3.86v-.28h6.23v.28Z"/>
      <path d="m103.05,28.89c-2.02.32-2.05,1.93-2.05,3.67v12.7c0,1.74.03,3.57,2.05,3.86v.28h-7.58v-.28c2.02-.25,2.05-1.9,2.05-3.63v-12.73c0-1.74-.03-3.57-2.05-3.86v-.28h7.58v.28Z"/>
      <path d="m124.03,34.71l-.25.06c-.73-2.18-3.57-4.71-8-4.71-2.78,0-2.94.63-2.94,2.78v1.67h3.38c1.45,0,2.56-.09,2.59-1.83l.28-.09,1.23,7.08-.25.06c-1.2-3.63-2.84-3.73-6.26-3.73h-.98v9.29c0,1.8.03,3.63,2.09,3.86v.25h-7.62v-.28c2.02-.28,2.05-1.93,2.05-3.63v-12.73c0-1.71-.03-3.54-2.05-3.86v-.28h13.62c.98,0,1.39-.06,1.67-.41l1.42,6.51Z"/>
      <path d="m134.33,28.89c-2.02.32-2.05,1.93-2.05,3.67v12.7c0,1.74.03,3.57,2.05,3.86v.28h-7.58v-.28c2.02-.25,2.05-1.9,2.05-3.63v-12.73c0-1.74-.03-3.57-2.05-3.86v-.28h7.58v.28Z"/>
      <path d="m156.7,33.89l-.25.09c-1.17-2.75-4.04-4.14-6.92-4.14-2.09,0-3.76.47-5.18,2.12-1.36,1.58-2.02,3.7-2.02,5.78,0,5.5,3.73,10.43,9.51,10.43,3.35,0,5.62-1.99,6.98-4.93l.32.13-2.43,6.35c-.19-.09-.38-.13-.6-.13-1.11,0-2.21.22-4.27.22-3.32,0-6.64-.7-9.23-2.84-2.72-2.24-4.08-5.53-4.08-9.01,0-2.75.98-5.53,3.13-7.33,2.28-1.87,5.02-2.43,7.87-2.43.92,0,1.77.09,2.53.16.76.09,1.42.19,1.96.19.51,0,1.01-.16,1.23-.63l1.45,5.97Z"/>
      <path d="m175.6,28.89c-.57.16-.92.51-.92,1.14,0,.38.16.88.28,1.23l5.4,15.55c.41,1.17.66,1.99,1.93,2.31v.28h-7.17v-.28c1.14-.25,1.55-1.11,1.55-2.21,0-2.4-2.62-6.86-8.63-6.95l-1.9,5.21c-.25.73-.51,1.49-.51,2.24,0,1.01.82,1.64,1.74,1.71v.28h-6.45v-.28c.76-.16,1.17-.35,1.64-1.01.57-.82,1.07-2.02,1.42-2.94l5.09-13.43c.22-.6.47-1.2.47-1.83,0-.57-.44-.92-.98-1.01v-.28h7.02v.28Zm-7.14,9.67c2.34,0,4.87.92,6.38,2.37l-3.51-9.96-2.88,7.58Z"/>
      <path d="m204.83,28.89c-2.02.28-2.05,1.93-2.05,3.63v12.74c0,1.77.03,3.57,2.05,3.86v.28h-6.23v-.28c2.05-.22,2.12-1.86,2.12-3.63v-2.88c0-1.49-.09-1.77-1.74-3.16l-9.99-8.31v14.13c0,1.8.03,3.67,2.05,3.86v.28h-6.16v-.28c2.02-.28,2.05-1.93,2.05-3.63v-12.73c0-1.74-.03-3.57-2.05-3.86v-.28h8.31v.28c-.44.03-.66.16-.66.38,0,.28.35.73.98,1.23l7.21,6v-3.76c0-1.8-.03-3.63-2.12-3.86v-.28h6.23v.28Z"/>
      <path d="m226.25,34.46l-.28.09c-1.2-3.07-3.6-4.3-7.46-4.3v15.04c0,1.93.03,3.76,2.05,3.82v.28h-7.58v-.28c2.02-.06,2.05-1.74,2.05-3.63v-15.23c-3.85,0-6.26,1.23-7.46,4.3l-.28-.09,1.55-6.26c.32.38.73.41,1.86.41h12.13c1.36,0,1.61-.1,1.86-.41l1.55,6.26Z"/>
      <path d="m261.17,28.89c-2.02.25-2.05,1.9-2.05,3.63v12.74c0,1.77.03,3.6,2.05,3.86v.28h-7.58v-.28c2.02-.16,2.05-1.83,2.05-3.63v-9.57h-9.42v9.35c0,1.8.03,3.67,2.05,3.86v.28h-7.58v-.28c2.02-.28,2.05-1.93,2.05-3.63v-12.73c0-1.74-.03-3.57-2.05-3.86v-.28h7.58v.28c-2.02.22-2.05,1.86-2.05,3.63v1.86h9.42v-1.64c-.03-1.83,0-3.7-2.05-3.86v-.28h7.58v.28Z"/>
      <path d="m276.62,49.81c-2.88,0-5.66-.92-7.77-2.91-2.12-1.99-3.38-4.96-3.38-7.84,0-6.32,4.9-10.87,11.12-10.87s11.28,4.58,11.28,11.09c0,6.16-5.31,10.52-11.25,10.52Zm-7.36-11.88c0,4.71,2.81,10.24,8.09,10.24,4.42,0,6.73-3.86,6.73-7.93,0-5.62-3.76-10.4-8.22-10.4s-6.6,4.01-6.6,8.09Z"/>
      <path d="m315.17,28.89c-2.02.32-2.05,1.93-2.05,3.63v12.74c0,1.74.03,3.54,2.05,3.86v.28h-7.58v-.28c2.02-.22,2.05-1.86,2.05-3.63v-14.69l-6.92,11.22-6.38-11.22v14.47c0,1.8.03,3.67,2.05,3.86v.28h-6.16v-.28c2.02-.28,2.05-1.9,2.05-3.63v-12.73c0-1.74-.03-3.57-2.05-3.86v-.28h7.99v.28c-.38.09-.54.32-.54.63s.16.7.41,1.17l3.63,6.64,3.6-5.85c.47-.76.82-1.45.82-1.93,0-.35-.16-.57-.6-.66v-.28h7.62v.28Z"/>
      <path d="m335.84,34.58l-.25.1c-1.33-3.19-4.71-4.61-7.96-4.61-2.18,0-2.91.35-2.91,2.65v1.8h2.43c2.62,0,3.51-.25,3.51-1.9l.28-.09,1.23,7.08-.25.09c-1.11-3.7-3.1-3.7-6.45-3.7h-.76v8.47c0,2.46.06,3.48,3.25,3.48,4.52,0,7.52-2.12,9.48-6.1l.32.09-2.69,7.87c-.16-.22-.38-.29-.63-.35-.22-.03-.51-.06-.76-.06h-14.5v-.28c.32,0,1.07-.25,1.49-.76.57-.7.57-1.77.57-2.88v-12.73c0-1.71-.03-3.54-2.05-3.86v-.28h13.53c1.2,0,1.33,0,1.71-.38l1.42,6.35Z"/>
    </g>
  </g>
</svg>